<svg xmlns="http://www.w3.org/2000/svg" viewBox="0 0 460.5 460.5"><defs><style>.cls-1{fill:#37373a;}</style></defs><title>head</title><g id="Layer_6" data-name="Layer 6"><path class="cls-1" d="M344.09,155.7C216.93,155.7,113.84,258.79,113.84,386S216.93,616.2,344.09,616.2,574.34,513.11,574.34,386,471.25,155.7,344.09,155.7Zm43.1,407.75c-10,4-62.14,21.15-99.5,13-27.5-6-27-8.5-56-36s-27-34.5-21-40,2-8,10.5-20,8,3.5,18.5-35c3-10.91,3.55-23,2.86-34.75,2.81,22.27,10.93,62.46,33.36,80.41,31.85,25.48,48.89,41.14,118.06,43.82,1.64,4.18,6.18,5.36,7.42,11.52C403.09,555,397.19,559.45,387.19,563.45ZM456,412.61c-2.41-4-1.51-5.44.89-8.59-.08,0,5.37-6.3,11.71-14.2-.63,13.48,1.29,26.47-5.86,36.63.63-1,1.28-2,1.81-3C461,419.07,457.27,414.86,456,412.61Zm4.75,16.66c-.07.1-.14.19-.2.29C460.56,429.46,460.63,429.37,460.7,429.27Zm-2,2.89-.36.51Zm-2.11,3-.33.46ZM470,378.13c.13-.56.26-1.12.41-1.68.62-.41,1.21-.81,1.78-1.22-.57.41-1.16.81-1.78,1.22C470.25,377,470.12,377.57,470,378.13Zm-1.35,10v0Zm.12-1.66c0-.05,0-.09,0-.14S468.76,386.45,468.76,386.5Zm.15-1.67c0-.09,0-.19,0-.28C468.94,384.64,468.92,384.74,468.91,384.83Zm.2-1.67c0-.16.05-.33.07-.49C469.16,382.83,469.13,383,469.11,383.16Zm.24-1.68c0-.21.08-.42.11-.63C469.43,381.06,469.39,381.27,469.35,381.48Zm.29-1.67c.06-.28.12-.56.17-.83C469.76,379.25,469.7,379.53,469.64,379.81Zm7.52-8.57c.33-.31.64-.61.94-.92C477.8,370.63,477.49,370.93,477.16,371.24Zm-4.47,3.62c.39-.28.77-.55,1.14-.83C473.46,374.31,473.08,374.58,472.69,374.86Zm1.68-1.25,1-.78Zm1.47-1.2c.32-.26.62-.53.92-.8C476.46,371.88,476.16,372.15,475.84,372.41Zm8.3-15.9c0-.51,0-1,0-1.57h0a13.34,13.34,0,0,0-2-.36l-19.22-2a8.57,8.57,0,0,0-9,4.54S441.59,380,426.18,394.06c-4.94,4-7.15,5.29-9.58,5-1.3-.13-2.83-1.8-2.4-5.91l4-38.26c.5-4.85-.76-7.24-4.87-7.67l-30.23-3.13a4.66,4.66,0,0,0-5.32,4c-.48,4.66,6.31,6.5,5.7,19.64l-2.94,28.37c-.63,6.16-1.87,7.16-4.29,6.91-6.54-.67-19.91-26.39-26.59-54.81-1.3-5.61-3-7.86-7.81-8.36l-19.41-2c-5.6-.58-6.8,1.94-7.09,4.74-.52,5,3.38,31.1,23.79,67.16,13.49,24.6,34.8,39.26,55.14,41.36,12.32,1.28,14.1-1.37,14.59-6l1.79-17.36c.58-5.6,1.8-6.41,5.72-6,2.8.29,7.68,2.31,17.93,14.5,5.47,6.73,8.74,11.68,11.41,15.11h0c-4.14,6.44-8.09,13-11.49,19.63-8,15.5-17.5,43-34,50s-92.5-25.5-112.5-41-34.5-66-46.5-84.5l-.27-.44h0s.09.53.21,1.45l-.21-1.47c-11.79-19.18-16.13-89.75-4.72-116,11.5-26.5,16-60,48.5-79s69-14,69-14c36.5,2.5,81,15.5,110.5,62.5s11,55.5,16,81.5C482.46,341.76,484.4,350,484.14,356.51Zm-5.79,13.56a23.74,23.74,0,0,0,2.06-2.43A23.74,23.74,0,0,1,478.35,370.07Zm2.12-2.52c.27-.37.52-.74.76-1.12C481,366.81,480.74,367.18,480.47,367.55Zm.9-1.34c.2-.34.4-.69.58-1C481.77,365.52,481.58,365.87,481.37,366.21Zm.71-1.28c.18-.35.35-.71.5-1.07C482.43,364.22,482.26,364.58,482.08,364.93Zm.58-1.26c.18-.42.33-.83.47-1.26C483,362.84,482.84,363.25,482.66,363.67Zm.48-1.28a21,21,0,0,0,1-5.82A21,21,0,0,1,483.14,362.39Zm-28.75,75.92-.24.34Zm-2.29,3.34,0,0Z" transform="translate(-113.84 -155.7)"/><path class="cls-1" d="M752.34,468.46" transform="translate(-113.84 -155.7)"/><path class="cls-1" d="M719.59,483.59" transform="translate(-113.84 -155.7)"/></g></svg>